<?xml version="1.0" encoding="utf-8"?>
<!-- Uploaded to: SVG Repo, www.svgrepo.com, Generator: SVG Repo Mixer Tools -->
<svg width="800px" height="800px" viewBox="-0.97 0 20 20" xmlns="http://www.w3.org/2000/svg">
  <g id="car-door-left-3" transform="translate(-3 -2)">
    <path id="secondary" fill="#2ca9bc" d="M4,12v8a1,1,0,0,0,1,1h8.72a1,1,0,0,0,.84-.45l5.27-7.91A1,1,0,0,0,20,12Z"/>
    <path id="primary" d="M8,16h2M4,12H19.88m-5.32,8.55,5.27-7.91a1,1,0,0,0-.08-1.22L12.56,3.34A1,1,0,0,0,11.81,3H5A1,1,0,0,0,4,4V20a1,1,0,0,0,1,1h8.72a1,1,0,0,0,.84-.45Z" fill="none" stroke="#000000" stroke-linecap="round" stroke-linejoin="round" stroke-width="2"/>
  </g>
</svg>